<?xml version="1.0" encoding="UTF-8" standalone="no"?>
<!DOCTYPE svg PUBLIC "-//W3C//DTD SVG 1.1//EN" "http://www.w3.org/Graphics/SVG/1.1/DTD/svg11.dtd">
<svg width="100%" height="100%" viewBox="0 0 250 100" version="1.1" xmlns="http://www.w3.org/2000/svg" xmlns:xlink="http://www.w3.org/1999/xlink" xml:space="preserve" xmlns:serif="http://www.serif.com/" style="fill-rule:evenodd;clip-rule:evenodd;stroke-linejoin:round;stroke-miterlimit:2;">
    <g id="Artboard1" transform="matrix(0.208333,0,0,0.0833333,0,0)">
        <rect x="0" y="0" width="1200" height="1200" style="fill:none;"/>
        <rect x="0" y="0" width="1200" height="1200" style="fill:rgb(41,41,41);fill-opacity:0.32;"/>
        <g transform="matrix(4.00346,0,0,10.0086,-1700.97,-5141.4)">
            <g transform="matrix(98.6733,0,0,130,648.567,619.635)">
                <path d="M0.118,-0.154C0.115,-0.171 0.097,-0.183 0.075,-0.183C0.075,-0.183 0.075,-0.183 0.075,-0.183C0.063,-0.183 0.052,-0.179 0.044,-0.172C0.036,-0.166 0.032,-0.157 0.034,-0.148C0.037,-0.123 0.043,-0.096 0.051,-0.082C0.063,-0.059 0.079,-0.041 0.099,-0.028C0.119,-0.014 0.142,-0.004 0.168,0.002C0.194,0.008 0.221,0.011 0.25,0.011C0.276,0.011 0.302,0.008 0.329,0.004C0.355,-0.002 0.379,-0.01 0.4,-0.023C0.421,-0.036 0.438,-0.052 0.451,-0.073C0.464,-0.094 0.47,-0.12 0.47,-0.151C0.47,-0.176 0.465,-0.196 0.456,-0.213C0.446,-0.23 0.433,-0.244 0.418,-0.255C0.402,-0.266 0.384,-0.274 0.364,-0.281C0.343,-0.288 0.322,-0.293 0.301,-0.298C0.281,-0.303 0.261,-0.307 0.241,-0.312C0.221,-0.316 0.203,-0.321 0.187,-0.328C0.171,-0.334 0.158,-0.342 0.148,-0.352C0.137,-0.361 0.132,-0.373 0.132,-0.388C0.132,-0.401 0.135,-0.412 0.142,-0.421C0.149,-0.429 0.157,-0.436 0.168,-0.441C0.179,-0.446 0.191,-0.449 0.204,-0.451C0.217,-0.453 0.229,-0.454 0.242,-0.454C0.256,-0.454 0.27,-0.452 0.284,-0.45C0.297,-0.447 0.31,-0.442 0.321,-0.435C0.332,-0.428 0.342,-0.42 0.349,-0.409C0.353,-0.402 0.355,-0.392 0.357,-0.38C0.36,-0.366 0.376,-0.355 0.396,-0.355C0.396,-0.355 0.396,-0.355 0.396,-0.355C0.409,-0.355 0.421,-0.359 0.43,-0.367C0.439,-0.374 0.443,-0.384 0.441,-0.394C0.438,-0.414 0.434,-0.433 0.427,-0.446C0.416,-0.467 0.401,-0.483 0.382,-0.496C0.363,-0.508 0.341,-0.517 0.316,-0.522C0.291,-0.527 0.264,-0.529 0.235,-0.529C0.212,-0.529 0.19,-0.526 0.167,-0.521C0.143,-0.515 0.123,-0.506 0.105,-0.495C0.086,-0.483 0.071,-0.468 0.06,-0.449C0.048,-0.43 0.042,-0.408 0.042,-0.382C0.042,-0.349 0.05,-0.323 0.067,-0.304C0.084,-0.285 0.105,-0.271 0.13,-0.261C0.155,-0.25 0.182,-0.242 0.211,-0.237C0.24,-0.231 0.268,-0.225 0.293,-0.218C0.318,-0.211 0.338,-0.201 0.355,-0.19C0.372,-0.179 0.38,-0.162 0.38,-0.14C0.38,-0.124 0.376,-0.111 0.368,-0.101C0.36,-0.09 0.35,-0.082 0.338,-0.077C0.325,-0.072 0.312,-0.068 0.297,-0.066C0.282,-0.064 0.268,-0.063 0.255,-0.063C0.238,-0.063 0.221,-0.065 0.205,-0.068C0.188,-0.071 0.173,-0.077 0.161,-0.085C0.148,-0.092 0.137,-0.102 0.129,-0.116C0.124,-0.123 0.121,-0.139 0.118,-0.154Z" style="fill:white;fill-rule:nonzero;"/>
            </g>
            <g transform="matrix(100.725,0,0,132.703,630.662,620.973)">
                <path d="M0.112,-0.61C0.135,-0.61 0.154,-0.624 0.154,-0.642L0.154,-0.682C0.154,-0.7 0.135,-0.714 0.112,-0.714L0.111,-0.714C0.088,-0.714 0.069,-0.7 0.069,-0.682L0.069,-0.642C0.069,-0.624 0.088,-0.61 0.111,-0.61L0.112,-0.61ZM0.111,-0.517C0.1,-0.517 0.089,-0.514 0.081,-0.508C0.073,-0.502 0.069,-0.493 0.069,-0.485L0.069,-0.032C0.069,-0.024 0.073,-0.015 0.081,-0.009C0.089,-0.003 0.1,0 0.111,0L0.112,0C0.123,0 0.134,-0.003 0.142,-0.009C0.15,-0.015 0.154,-0.024 0.154,-0.032L0.154,-0.485C0.154,-0.493 0.15,-0.502 0.142,-0.508C0.134,-0.514 0.123,-0.517 0.112,-0.517L0.111,-0.517Z" style="fill:white;fill-rule:nonzero;"/>
            </g>
            <g transform="matrix(100.725,0,0,132.703,550.743,620.973)">
                <path d="M0.104,-0.517C0.082,-0.517 0.064,-0.503 0.064,-0.487L0.064,-0.032C0.064,-0.024 0.068,-0.015 0.076,-0.009C0.084,-0.003 0.095,0 0.106,0L0.107,0C0.118,0 0.129,-0.003 0.137,-0.009C0.145,-0.015 0.149,-0.024 0.149,-0.032L0.149,-0.322C0.149,-0.332 0.152,-0.345 0.157,-0.36C0.162,-0.375 0.169,-0.389 0.181,-0.403C0.192,-0.417 0.206,-0.429 0.224,-0.439C0.241,-0.449 0.262,-0.454 0.287,-0.454C0.306,-0.454 0.322,-0.451 0.335,-0.446C0.347,-0.44 0.357,-0.432 0.364,-0.422C0.371,-0.411 0.377,-0.399 0.38,-0.385C0.383,-0.371 0.384,-0.356 0.384,-0.339L0.384,-0.032C0.384,-0.024 0.388,-0.015 0.396,-0.009C0.404,-0.003 0.415,0 0.426,0L0.427,0C0.438,0 0.449,-0.003 0.457,-0.009C0.465,-0.015 0.469,-0.024 0.469,-0.032L0.469,-0.322C0.469,-0.362 0.481,-0.394 0.505,-0.418C0.529,-0.442 0.562,-0.454 0.604,-0.454C0.625,-0.454 0.642,-0.451 0.655,-0.445C0.668,-0.439 0.678,-0.431 0.685,-0.421C0.692,-0.41 0.697,-0.398 0.7,-0.384C0.703,-0.37 0.704,-0.355 0.704,-0.339L0.704,-0.032C0.704,-0.024 0.708,-0.015 0.716,-0.009C0.724,-0.003 0.735,0 0.746,0L0.747,0C0.758,0 0.769,-0.003 0.777,-0.009C0.785,-0.015 0.789,-0.024 0.789,-0.032L0.789,-0.379C0.789,-0.406 0.785,-0.428 0.777,-0.448C0.768,-0.467 0.756,-0.482 0.742,-0.494C0.727,-0.506 0.708,-0.515 0.688,-0.521C0.667,-0.526 0.643,-0.529 0.617,-0.529C0.583,-0.529 0.552,-0.521 0.524,-0.506C0.495,-0.491 0.472,-0.469 0.455,-0.441C0.444,-0.473 0.426,-0.496 0.4,-0.509C0.374,-0.522 0.345,-0.529 0.313,-0.529C0.24,-0.529 0.185,-0.5 0.146,-0.441L0.144,-0.441L0.144,-0.487C0.144,-0.495 0.14,-0.502 0.132,-0.508C0.125,-0.514 0.115,-0.517 0.104,-0.517L0.104,-0.517Z" style="fill:white;fill-rule:nonzero;"/>
            </g>
            <g transform="matrix(100.725,0,0,132.703,498.654,619.513)">
                <path d="M0.522,-0.025C0.522,-0.007 0.505,0.008 0.482,0.011C0.475,0.011 0.468,0.011 0.461,0.011C0.439,0.011 0.422,0.005 0.409,-0.008C0.396,-0.02 0.389,-0.04 0.389,-0.068C0.366,-0.04 0.338,-0.02 0.308,-0.008C0.277,0.005 0.243,0.011 0.207,0.011C0.184,0.011 0.162,0.008 0.141,0.003C0.12,-0.002 0.101,-0.011 0.086,-0.022C0.071,-0.033 0.058,-0.048 0.05,-0.067C0.041,-0.085 0.036,-0.107 0.036,-0.133C0.036,-0.162 0.041,-0.186 0.051,-0.205C0.061,-0.224 0.074,-0.239 0.091,-0.251C0.107,-0.262 0.126,-0.271 0.147,-0.277C0.167,-0.283 0.189,-0.288 0.211,-0.292C0.234,-0.297 0.257,-0.3 0.278,-0.303C0.299,-0.305 0.317,-0.308 0.333,-0.313C0.349,-0.317 0.362,-0.323 0.371,-0.332C0.38,-0.34 0.385,-0.352 0.385,-0.368C0.385,-0.387 0.382,-0.402 0.375,-0.413C0.368,-0.424 0.359,-0.433 0.348,-0.439C0.337,-0.445 0.324,-0.449 0.311,-0.451C0.297,-0.453 0.283,-0.454 0.27,-0.454C0.234,-0.454 0.204,-0.447 0.18,-0.434C0.162,-0.423 0.15,-0.406 0.145,-0.382C0.141,-0.367 0.124,-0.356 0.103,-0.356C0.103,-0.356 0.103,-0.356 0.103,-0.356C0.09,-0.356 0.078,-0.36 0.07,-0.368C0.062,-0.375 0.058,-0.385 0.06,-0.395C0.064,-0.41 0.069,-0.425 0.076,-0.437C0.088,-0.459 0.104,-0.477 0.124,-0.491C0.144,-0.504 0.167,-0.514 0.193,-0.52C0.218,-0.526 0.246,-0.529 0.275,-0.529C0.298,-0.529 0.322,-0.527 0.345,-0.524C0.368,-0.521 0.388,-0.514 0.407,-0.504C0.426,-0.493 0.441,-0.479 0.452,-0.46C0.463,-0.441 0.469,-0.417 0.469,-0.387L0.469,-0.121C0.469,-0.101 0.47,-0.086 0.473,-0.077C0.475,-0.068 0.483,-0.063 0.496,-0.063C0.496,-0.063 0.496,-0.063 0.496,-0.063C0.503,-0.063 0.51,-0.061 0.514,-0.057C0.519,-0.054 0.522,-0.049 0.522,-0.043C0.522,-0.037 0.522,-0.031 0.522,-0.025ZM0.384,-0.267C0.373,-0.259 0.359,-0.253 0.342,-0.25C0.325,-0.246 0.307,-0.243 0.288,-0.241C0.269,-0.238 0.249,-0.236 0.23,-0.233C0.211,-0.23 0.193,-0.225 0.178,-0.218C0.163,-0.211 0.15,-0.202 0.141,-0.19C0.131,-0.177 0.126,-0.16 0.126,-0.139C0.126,-0.125 0.129,-0.113 0.135,-0.104C0.14,-0.094 0.148,-0.086 0.157,-0.08C0.166,-0.074 0.176,-0.07 0.188,-0.067C0.2,-0.064 0.213,-0.063 0.226,-0.063C0.254,-0.063 0.278,-0.067 0.298,-0.075C0.318,-0.082 0.334,-0.092 0.347,-0.104C0.36,-0.115 0.369,-0.128 0.375,-0.142C0.381,-0.155 0.384,-0.168 0.384,-0.18L0.384,-0.267Z" style="fill:white;fill-rule:nonzero;"/>
            </g>
            <g transform="matrix(98.6733,0,0,130,451.53,619.635)">
                <path d="M0.118,-0.154C0.115,-0.171 0.097,-0.183 0.075,-0.183C0.075,-0.183 0.075,-0.183 0.075,-0.183C0.063,-0.183 0.052,-0.179 0.044,-0.172C0.036,-0.166 0.032,-0.157 0.034,-0.148C0.037,-0.123 0.043,-0.096 0.051,-0.082C0.063,-0.059 0.079,-0.041 0.099,-0.028C0.119,-0.014 0.142,-0.004 0.168,0.002C0.194,0.008 0.221,0.011 0.25,0.011C0.276,0.011 0.302,0.008 0.329,0.004C0.355,-0.002 0.379,-0.01 0.4,-0.023C0.421,-0.036 0.438,-0.052 0.451,-0.073C0.464,-0.094 0.47,-0.12 0.47,-0.151C0.47,-0.176 0.465,-0.196 0.456,-0.213C0.446,-0.23 0.433,-0.244 0.418,-0.255C0.402,-0.266 0.384,-0.274 0.364,-0.281C0.343,-0.288 0.322,-0.293 0.301,-0.298C0.281,-0.303 0.261,-0.307 0.241,-0.312C0.221,-0.316 0.203,-0.321 0.187,-0.328C0.171,-0.334 0.158,-0.342 0.148,-0.352C0.137,-0.361 0.132,-0.373 0.132,-0.388C0.132,-0.401 0.135,-0.412 0.142,-0.421C0.149,-0.429 0.157,-0.436 0.168,-0.441C0.179,-0.446 0.191,-0.449 0.204,-0.451C0.217,-0.453 0.229,-0.454 0.242,-0.454C0.256,-0.454 0.27,-0.452 0.284,-0.45C0.297,-0.447 0.31,-0.442 0.321,-0.435C0.332,-0.428 0.342,-0.42 0.349,-0.409C0.353,-0.402 0.355,-0.392 0.357,-0.38C0.36,-0.366 0.376,-0.355 0.396,-0.355C0.396,-0.355 0.396,-0.355 0.396,-0.355C0.409,-0.355 0.421,-0.359 0.43,-0.367C0.439,-0.374 0.443,-0.384 0.441,-0.394C0.438,-0.414 0.434,-0.433 0.427,-0.446C0.416,-0.467 0.401,-0.483 0.382,-0.496C0.363,-0.508 0.341,-0.517 0.316,-0.522C0.291,-0.527 0.264,-0.529 0.235,-0.529C0.212,-0.529 0.19,-0.526 0.167,-0.521C0.143,-0.515 0.123,-0.506 0.105,-0.495C0.086,-0.483 0.071,-0.468 0.06,-0.449C0.048,-0.43 0.042,-0.408 0.042,-0.382C0.042,-0.349 0.05,-0.323 0.067,-0.304C0.084,-0.285 0.105,-0.271 0.13,-0.261C0.155,-0.25 0.182,-0.242 0.211,-0.237C0.24,-0.231 0.268,-0.225 0.293,-0.218C0.318,-0.211 0.338,-0.201 0.355,-0.19C0.372,-0.179 0.38,-0.162 0.38,-0.14C0.38,-0.124 0.376,-0.111 0.368,-0.101C0.36,-0.09 0.35,-0.082 0.338,-0.077C0.325,-0.072 0.312,-0.068 0.297,-0.066C0.282,-0.064 0.268,-0.063 0.255,-0.063C0.238,-0.063 0.221,-0.065 0.205,-0.068C0.188,-0.071 0.173,-0.077 0.161,-0.085C0.148,-0.092 0.137,-0.102 0.129,-0.116C0.124,-0.123 0.121,-0.139 0.118,-0.154Z" style="fill:white;fill-rule:nonzero;"/>
            </g>
        </g>
    </g>
</svg>
