<?xml version="1.0" encoding="UTF-8" standalone="no"?>
<!DOCTYPE svg PUBLIC "-//W3C//DTD SVG 1.1//EN" "http://www.w3.org/Graphics/SVG/1.1/DTD/svg11.dtd">
<svg width="100%" height="100%" viewBox="0 0 1400 1200" version="1.1" xmlns="http://www.w3.org/2000/svg" xmlns:xlink="http://www.w3.org/1999/xlink" xml:space="preserve" xmlns:serif="http://www.serif.com/" style="fill-rule:evenodd;clip-rule:evenodd;stroke-linejoin:round;stroke-miterlimit:2;">
    <g id="Artboard1" transform="matrix(1.16667,0,0,1,0,0)">
        <rect x="0" y="0" width="1200" height="1200" style="fill:none;"/>
        <g transform="matrix(1.85056,0,0,1.85056,-351.715,-510.334)">
            <g transform="matrix(0.500897,0,0,0.668878,129.266,420.476)">
                <g transform="matrix(138.923,0,0,138.923,179.975,431.376)">
                    <path d="M0.013,-0L0.593,-0L0.593,-0.158L0.308,-0.158L0.608,-0.693L0.608,-0.715L0.052,-0.715L0.052,-0.558L0.317,-0.558L0.013,-0.023L0.013,-0Z" style="fill-rule:nonzero;"/>
                </g>
                <g transform="matrix(138.923,0,0,138.923,267.08,431.376)">
                    <path d="M0.069,-0L0.579,-0L0.579,-0.158L0.273,-0.158L0.273,-0.288L0.504,-0.288L0.504,-0.434L0.273,-0.434L0.273,-0.557L0.563,-0.557L0.563,-0.715L0.069,-0.715L0.069,-0Z" style="fill-rule:nonzero;"/>
                </g>
                <g transform="matrix(138.923,0,0,138.923,352.1,431.376)">
                    <path d="M0.069,-0L0.273,-0L0.273,-0.256L0.321,-0.256L0.466,-0L0.682,-0L0.511,-0.296C0.586,-0.325 0.64,-0.382 0.64,-0.484L0.64,-0.488C0.64,-0.639 0.536,-0.715 0.349,-0.715L0.069,-0.715L0.069,-0ZM0.273,-0.389L0.273,-0.561L0.34,-0.561C0.406,-0.561 0.442,-0.538 0.442,-0.48L0.442,-0.476C0.442,-0.418 0.408,-0.389 0.339,-0.389L0.273,-0.389Z" style="fill-rule:nonzero;"/>
                </g>
                <g transform="matrix(138.923,0,0,138.923,447.54,431.376)">
                    <path d="M0.406,0.012C0.637,0.012 0.788,-0.138 0.788,-0.358L0.788,-0.366C0.788,-0.588 0.627,-0.725 0.409,-0.725C0.195,-0.725 0.031,-0.579 0.031,-0.361L0.031,-0.353C0.031,-0.138 0.175,0.012 0.406,0.012ZM0.41,-0.149C0.311,-0.149 0.245,-0.224 0.245,-0.354L0.245,-0.362C0.245,-0.492 0.308,-0.565 0.409,-0.565C0.51,-0.565 0.574,-0.49 0.574,-0.363L0.574,-0.355C0.574,-0.227 0.511,-0.149 0.41,-0.149Z" style="fill-rule:nonzero;"/>
                </g>
                <g transform="matrix(138.923,0,0,138.923,557.845,431.376)">
                    <path d="M0.206,-0L0.412,-0L0.412,-0.557L0.597,-0.557L0.597,-0.715L0.021,-0.715L0.021,-0.557L0.206,-0.557L0.206,-0Z" style="fill-rule:nonzero;"/>
                </g>
                <g transform="matrix(138.923,0,0,138.923,645.088,431.376)">
                    <path d="M0.18,-0L0.38,-0L0.491,-0.454L0.601,-0L0.815,-0L0.982,-0.715L0.792,-0.715L0.695,-0.265L0.591,-0.715L0.409,-0.715L0.313,-0.269L0.221,-0.715L0.014,-0.715L0.18,-0Z" style="fill-rule:nonzero;"/>
                </g>
                <g transform="matrix(138.923,0,0,138.923,779.982,431.376)">
                    <path d="M0.406,0.012C0.637,0.012 0.788,-0.138 0.788,-0.358L0.788,-0.366C0.788,-0.588 0.627,-0.725 0.409,-0.725C0.195,-0.725 0.031,-0.579 0.031,-0.361L0.031,-0.353C0.031,-0.138 0.175,0.012 0.406,0.012ZM0.41,-0.149C0.311,-0.149 0.245,-0.224 0.245,-0.354L0.245,-0.362C0.245,-0.492 0.308,-0.565 0.409,-0.565C0.51,-0.565 0.574,-0.49 0.574,-0.363L0.574,-0.355C0.574,-0.227 0.511,-0.149 0.41,-0.149Z" style="fill-rule:nonzero;"/>
                </g>
                <g transform="matrix(138.923,0,0,138.923,889.592,431.376)">
                    <path d="M0.013,-0L0.593,-0L0.593,-0.158L0.308,-0.158L0.608,-0.693L0.608,-0.715L0.052,-0.715L0.052,-0.558L0.317,-0.558L0.013,-0.023L0.013,-0Z" style="fill-rule:nonzero;"/>
                </g>
                <g transform="matrix(138.923,0,0,138.923,976.696,431.376)">
                    <path d="M0.069,-0L0.579,-0L0.579,-0.158L0.273,-0.158L0.273,-0.288L0.504,-0.288L0.504,-0.434L0.273,-0.434L0.273,-0.557L0.563,-0.557L0.563,-0.715L0.069,-0.715L0.069,-0Z" style="fill-rule:nonzero;"/>
                </g>
                <g transform="matrix(138.923,0,0,138.923,1061.72,431.376)">
                    <path d="M0.069,-0L0.273,-0L0.273,-0.256L0.321,-0.256L0.466,-0L0.682,-0L0.511,-0.296C0.586,-0.325 0.64,-0.382 0.64,-0.484L0.64,-0.488C0.64,-0.639 0.536,-0.715 0.349,-0.715L0.069,-0.715L0.069,-0ZM0.273,-0.389L0.273,-0.561L0.34,-0.561C0.406,-0.561 0.442,-0.538 0.442,-0.48L0.442,-0.476C0.442,-0.418 0.408,-0.389 0.339,-0.389L0.273,-0.389Z" style="fill-rule:nonzero;"/>
                </g>
                <g transform="matrix(138.923,0,0,138.923,1157.16,431.376)">
                    <path d="M0.406,0.012C0.637,0.012 0.788,-0.138 0.788,-0.358L0.788,-0.366C0.788,-0.588 0.627,-0.725 0.409,-0.725C0.195,-0.725 0.031,-0.579 0.031,-0.361L0.031,-0.353C0.031,-0.138 0.175,0.012 0.406,0.012ZM0.41,-0.149C0.311,-0.149 0.245,-0.224 0.245,-0.354L0.245,-0.362C0.245,-0.492 0.308,-0.565 0.409,-0.565C0.51,-0.565 0.574,-0.49 0.574,-0.363L0.574,-0.355C0.574,-0.227 0.511,-0.149 0.41,-0.149Z" style="fill-rule:nonzero;"/>
                </g>
                <g transform="matrix(138.923,0,0,138.923,1269.54,431.376)">
                    <path d="M0.331,0.012C0.515,0.012 0.619,-0.095 0.619,-0.226C0.619,-0.381 0.526,-0.428 0.345,-0.448C0.256,-0.46 0.234,-0.478 0.234,-0.518C0.234,-0.554 0.262,-0.579 0.317,-0.579C0.373,-0.579 0.402,-0.553 0.409,-0.502L0.599,-0.502C0.586,-0.653 0.489,-0.725 0.317,-0.725C0.146,-0.725 0.04,-0.631 0.04,-0.502C0.04,-0.358 0.108,-0.298 0.31,-0.274C0.396,-0.261 0.423,-0.249 0.423,-0.205C0.423,-0.163 0.39,-0.134 0.331,-0.134C0.246,-0.134 0.223,-0.176 0.218,-0.227L0.023,-0.227C0.029,-0.072 0.131,0.012 0.331,0.012Z" style="fill-rule:nonzero;"/>
                </g>
            </g>
            <g transform="matrix(0.433469,0,0,0.505714,198.047,571.451)">
                <g transform="matrix(138.923,0,0,138.923,179.975,431.376)">
                    <path d="M0.401,0.009C0.584,0.009 0.711,-0.101 0.711,-0.308L0.711,-0.361L0.417,-0.361L0.417,-0.289L0.626,-0.289C0.623,-0.162 0.556,-0.061 0.401,-0.061C0.233,-0.061 0.145,-0.177 0.145,-0.354L0.145,-0.362C0.145,-0.537 0.239,-0.657 0.403,-0.657C0.507,-0.657 0.585,-0.613 0.605,-0.499L0.692,-0.499C0.67,-0.66 0.543,-0.726 0.401,-0.726C0.196,-0.726 0.055,-0.57 0.055,-0.361L0.055,-0.353C0.055,-0.144 0.181,0.009 0.401,0.009Z" style="fill-rule:nonzero;"/>
                </g>
                <g transform="matrix(138.923,0,0,138.923,286.529,431.376)">
                    <path d="M0.09,-0L0.525,-0L0.525,-0.071L0.177,-0.071L0.177,-0.33L0.443,-0.33L0.443,-0.401L0.177,-0.401L0.177,-0.644L0.507,-0.644L0.507,-0.715L0.09,-0.715L0.09,-0Z" style="fill-rule:nonzero;"/>
                </g>
                <g transform="matrix(138.923,0,0,138.923,365.159,431.376)">
                    <path d="M0.237,-0L0.324,-0L0.324,-0.644L0.532,-0.644L0.532,-0.715L0.029,-0.715L0.029,-0.644L0.237,-0.644L0.237,-0Z" style="fill-rule:nonzero;"/>
                </g>
                <g transform="matrix(138.923,0,0,138.923,479.909,431.376)">
                    <path d="M0.237,-0L0.324,-0L0.324,-0.644L0.532,-0.644L0.532,-0.715L0.029,-0.715L0.029,-0.644L0.237,-0.644L0.237,-0Z" style="fill-rule:nonzero;"/>
                </g>
                <g transform="matrix(138.923,0,0,138.923,559.234,431.376)">
                    <path d="M0.22,-0L0.299,-0L0.466,-0.565L0.628,-0L0.708,-0L0.894,-0.715L0.813,-0.715L0.666,-0.136L0.498,-0.715L0.436,-0.715L0.268,-0.138L0.123,-0.715L0.034,-0.715L0.22,-0Z" style="fill-rule:nonzero;"/>
                </g>
                <g transform="matrix(138.923,0,0,138.923,684.681,431.376)">
                    <path d="M0.409,0.009C0.617,0.009 0.756,-0.153 0.756,-0.355L0.756,-0.363C0.756,-0.564 0.617,-0.724 0.407,-0.724C0.197,-0.724 0.055,-0.564 0.055,-0.361L0.055,-0.353C0.055,-0.153 0.198,0.009 0.409,0.009ZM0.409,-0.063C0.26,-0.063 0.145,-0.181 0.145,-0.354L0.145,-0.362C0.145,-0.532 0.241,-0.654 0.407,-0.654C0.572,-0.654 0.666,-0.524 0.666,-0.364L0.666,-0.356C0.666,-0.183 0.568,-0.063 0.409,-0.063Z" style="fill-rule:nonzero;"/>
                </g>
                <g transform="matrix(138.923,0,0,138.923,834.161,431.376)">
                    <path d="M0.028,-0L0.547,-0L0.547,-0.074L0.159,-0.074L0.553,-0.702L0.553,-0.715L0.064,-0.715L0.064,-0.644L0.433,-0.644L0.028,-0.014L0.028,-0Z" style="fill-rule:nonzero;"/>
                </g>
                <g transform="matrix(138.923,0,0,138.923,916.82,431.376)">
                    <path d="M0.09,-0L0.525,-0L0.525,-0.071L0.177,-0.071L0.177,-0.33L0.443,-0.33L0.443,-0.401L0.177,-0.401L0.177,-0.644L0.507,-0.644L0.507,-0.715L0.09,-0.715L0.09,-0Z" style="fill-rule:nonzero;"/>
                </g>
                <g transform="matrix(138.923,0,0,138.923,995.451,431.376)">
                    <path d="M0.09,-0L0.177,-0L0.177,-0.311L0.287,-0.311L0.5,-0L0.597,-0L0.378,-0.317C0.476,-0.336 0.555,-0.394 0.555,-0.512L0.555,-0.516C0.555,-0.659 0.442,-0.715 0.305,-0.715L0.09,-0.715L0.09,-0ZM0.177,-0.38L0.177,-0.645L0.311,-0.645C0.408,-0.645 0.468,-0.613 0.468,-0.516L0.468,-0.512C0.468,-0.424 0.413,-0.38 0.311,-0.38L0.177,-0.38Z" style="fill-rule:nonzero;"/>
                </g>
                <g transform="matrix(138.923,0,0,138.923,1081.3,431.376)">
                    <path d="M0.409,0.009C0.617,0.009 0.756,-0.153 0.756,-0.355L0.756,-0.363C0.756,-0.564 0.617,-0.724 0.407,-0.724C0.197,-0.724 0.055,-0.564 0.055,-0.361L0.055,-0.353C0.055,-0.153 0.198,0.009 0.409,0.009ZM0.409,-0.063C0.26,-0.063 0.145,-0.181 0.145,-0.354L0.145,-0.362C0.145,-0.532 0.241,-0.654 0.407,-0.654C0.572,-0.654 0.666,-0.524 0.666,-0.364L0.666,-0.356C0.666,-0.183 0.568,-0.063 0.409,-0.063Z" style="fill-rule:nonzero;"/>
                </g>
                <g transform="matrix(138.923,0,0,138.923,1192.58,431.376)">
                    <path d="M0.321,0.009C0.463,0.009 0.568,-0.082 0.568,-0.202C0.568,-0.337 0.484,-0.385 0.325,-0.41C0.179,-0.432 0.153,-0.468 0.153,-0.538C0.153,-0.605 0.204,-0.654 0.302,-0.654C0.401,-0.654 0.453,-0.617 0.47,-0.527L0.548,-0.527C0.534,-0.654 0.445,-0.724 0.302,-0.724C0.167,-0.724 0.072,-0.64 0.072,-0.53C0.072,-0.403 0.161,-0.356 0.311,-0.333C0.447,-0.311 0.484,-0.277 0.484,-0.196C0.484,-0.115 0.413,-0.061 0.321,-0.061C0.177,-0.061 0.143,-0.133 0.132,-0.218L0.048,-0.218C0.061,-0.096 0.13,0.009 0.321,0.009Z" style="fill-rule:nonzero;"/>
                </g>
            </g>
            <g transform="matrix(1.74883,0,0,2.0403,-220.476,-62.7964)">
                <g transform="matrix(1,0,0,1,-1.47037,0)">
                    <path d="M457.486,330.942L534.727,330.942L537.505,313.438L493.328,313.438L552.092,234.252L552.509,231.613L478.324,231.613L475.546,248.978L517.361,248.978L457.903,328.164L457.486,330.942Z" style="fill-rule:nonzero;"/>
                </g>
                <g transform="matrix(1,0,0,1,-0.980246,0)">
                    <path d="M403.028,330.942L425.673,330.942L438.453,249.117L465.265,249.117L468.183,231.613L391.914,231.613L388.997,249.117L415.809,249.117L403.028,330.942Z" style="fill-rule:nonzero;"/>
                </g>
                <path d="M289.251,330.942L366.492,330.942L369.27,313.438L325.093,313.438L383.857,234.252L384.274,231.613L310.089,231.613L307.311,248.978L349.126,248.978L289.667,328.164L289.251,330.942Z" style="fill-rule:nonzero;"/>
            </g>
        </g>
    </g>
</svg>
